<?xml version="1.0" encoding="utf-8"?>
<!-- Generator: Adobe Illustrator 25.2.3, SVG Export Plug-In . SVG Version: 6.00 Build 0)  -->
<svg version="1.1" id="Capa_1" xmlns="http://www.w3.org/2000/svg" xmlns:xlink="http://www.w3.org/1999/xlink" x="0px" y="0px"
	 viewBox="0 0 407.5 407.5" style="enable-background:new 0 0 407.5 407.5;" xml:space="preserve">
<style type="text/css">
	.st0{opacity:0.5;}
</style>
<g class="st0">
	<g>
		<g>
			<path d="M335.9,114.9H71.6c-2.9-0.2-5.7,0.7-7.8,2.6c-2.1,2-3.1,5-2.6,7.8l27.2,236.7c3.2,26.1,25.4,45.6,51.7,45.5h131.7
				c27,0.4,49.8-20.1,52.2-47l22.5-236.1c0.1-2.5-0.8-5-2.6-6.8C341.6,115.6,338.8,114.7,335.9,114.9z M303,359.5
				c-1.6,15.9-15.4,27.8-31.3,27.2H140c-15.7,0.6-29.2-11-30.8-26.6L83.1,135.8h241.4L303,359.5z"/>
			<path d="M374.1,47H266.5V30.3c0.6-16.1-12-29.7-28.2-30.3c-0.5,0-1.1,0-1.6,0h-65.8c-16.2-0.3-29.5,12.6-29.8,28.7
				c0,0.5,0,1.1,0,1.6V47H33.4C27.7,47,23,51.7,23,57.5s4.7,10.4,10.4,10.4h340.6c5.8,0,10.4-4.7,10.4-10.4S379.8,47,374.1,47z
				 M245.6,30.3V47H162V30.3c-0.6-4.6,2.6-8.8,7.2-9.4c0.5-0.1,1.1-0.1,1.7,0h65.8c4.6-0.3,8.6,3.1,8.9,7.7
				C245.6,29.2,245.6,29.8,245.6,30.3z"/>
		</g>
	</g>
</g>
</svg>
