<?xml version="1.0" encoding="utf-8"?>
<!-- Generator: Adobe Illustrator 25.2.3, SVG Export Plug-In . SVG Version: 6.00 Build 0)  -->
<svg version="1.1" id="Слой_1" xmlns="http://www.w3.org/2000/svg" xmlns:xlink="http://www.w3.org/1999/xlink" x="0px" y="0px"
	 viewBox="0 0 512 512" style="enable-background:new 0 0 512 512;" xml:space="preserve">
<style type="text/css">
	.st0{opacity:0.5;fill:#999999;}
</style>
<path class="st0" d="M32,352h96V32H32C14.3,32,0,46.3,0,64v256C0,337.7,14.3,352,32,352z"/>
<path class="st0" d="M452.9,320c32.6,0,59.1-26.5,59.1-59.1c0-4.5-0.5-8.9-1.5-13.3L476.3,90.9C466.8,56.2,435.1,32,399.2,32L240,32
	c-44.1,0-80,35.9-80,80v167.4c0,19.8,7.3,38.8,20.5,53.5l127.6,141.8c4,4.4,10,6.3,15.8,4.8l23.5-5.9c14.6-3.6,26.4-13.7,32.4-27.5
	c6-13.8,5.2-29.3-2.1-42.4l-33.3-60c-4-7.2-1.2-13.5,0.2-15.9c1.4-2.4,5.5-7.9,13.8-7.9L452.9,320L452.9,320z"/>
</svg>
