<?xml version="1.0" encoding="utf-8"?>
<!-- Generator: Adobe Illustrator 25.2.3, SVG Export Plug-In . SVG Version: 6.00 Build 0)  -->
<svg version="1.1" id="Слой_1" xmlns="http://www.w3.org/2000/svg" xmlns:xlink="http://www.w3.org/1999/xlink" x="0px" y="0px"
	 viewBox="0 0 512 512" style="enable-background:new 0 0 512 512;" xml:space="preserve">
<style type="text/css">
	.st0{opacity:0.5;fill:#999999;}
</style>
<path class="st0" d="M0,192v256c0,17.7,14.3,32,32,32h96V160H32C14.3,160,0,174.3,0,192z"/>
<path class="st0" d="M452.9,192h-94.5c-8.3,0-12.4-5.5-13.8-7.9c-1.4-2.4-4.2-8.7-0.2-15.9l33.3-60c7.3-13.1,8.1-28.6,2.1-42.4
	C373.8,52,362,42,347.4,38.4l-23.5-5.9c-5.7-1.4-11.8,0.4-15.8,4.8L180.5,179c-13.2,14.7-20.5,33.7-20.5,53.5V400
	c0,44.1,35.9,80,80,80l159.2,0c35.9,0,67.7-24.2,77.2-58.8l34.2-156.8c1-4.4,1.5-8.8,1.5-13.3C512,218.5,485.5,192,452.9,192
	L452.9,192z"/>
</svg>
