<?xml version="1.0" encoding="utf-8"?>
<!-- Generator: Adobe Illustrator 23.0.0, SVG Export Plug-In . SVG Version: 6.00 Build 0)  -->
<svg version="1.1" id="Слой_1" xmlns="http://www.w3.org/2000/svg" xmlns:xlink="http://www.w3.org/1999/xlink" x="0px" y="0px"
	 viewBox="0 0 412.5 102.8" style="enable-background:new 0 0 412.5 102.8;" xml:space="preserve">
<style type="text/css">
	.st0{fill-rule:evenodd;clip-rule:evenodd;fill:url(#SVGID_1_);}
	.st1{fill-rule:evenodd;clip-rule:evenodd;fill:url(#SVGID_2_);}
	.st2{fill-rule:evenodd;clip-rule:evenodd;fill:url(#SVGID_3_);}
	.st3{fill-rule:evenodd;clip-rule:evenodd;}
	.st4{fill-rule:evenodd;clip-rule:evenodd;fill:url(#SVGID_4_);}
	.st5{fill-rule:evenodd;clip-rule:evenodd;fill:url(#SVGID_5_);}
	.st6{fill-rule:evenodd;clip-rule:evenodd;fill:url(#SVGID_6_);}
	.st7{fill-rule:evenodd;clip-rule:evenodd;fill:url(#SVGID_7_);}
	.st8{fill-rule:evenodd;clip-rule:evenodd;fill:url(#SVGID_8_);}
	.st9{fill-rule:evenodd;clip-rule:evenodd;fill:url(#SVGID_9_);}
	.st10{fill-rule:evenodd;clip-rule:evenodd;fill:url(#SVGID_10_);}
	.st11{fill-rule:evenodd;clip-rule:evenodd;fill:url(#SVGID_11_);}
	.st12{fill-rule:evenodd;clip-rule:evenodd;fill:url(#SVGID_12_);}
	.st13{fill-rule:evenodd;clip-rule:evenodd;fill:url(#SVGID_13_);}
	.st14{fill-rule:evenodd;clip-rule:evenodd;fill:url(#SVGID_14_);}
	.st15{fill-rule:evenodd;clip-rule:evenodd;fill:url(#SVGID_15_);}
	.st16{fill-rule:evenodd;clip-rule:evenodd;fill:url(#SVGID_16_);}
	.st17{fill-rule:evenodd;clip-rule:evenodd;fill:url(#SVGID_17_);}
	.st18{fill-rule:evenodd;clip-rule:evenodd;fill:url(#SVGID_18_);}
	.st19{fill-rule:evenodd;clip-rule:evenodd;fill:url(#SVGID_19_);}
	.st20{fill-rule:evenodd;clip-rule:evenodd;fill:url(#SVGID_20_);}
	.st21{fill-rule:evenodd;clip-rule:evenodd;fill:url(#SVGID_21_);}
	.st22{fill-rule:evenodd;clip-rule:evenodd;fill:url(#SVGID_22_);}
	.st23{fill-rule:evenodd;clip-rule:evenodd;fill:url(#SVGID_23_);}
	.st24{fill-rule:evenodd;clip-rule:evenodd;fill:url(#SVGID_24_);}
	.st25{fill-rule:evenodd;clip-rule:evenodd;fill:url(#SVGID_25_);}
	.st26{stroke:url(#SVGID_26_);stroke-width:4;stroke-miterlimit:10;}
</style>
<g>
	<g>
		<path d="M104,13v83.3H85L52,51.1v1.3v1.3v0.1v1.7v11.9v0.5v0.6v1v18.8v0.5v0.3v1v6.2H37.2L34,93.1l3.9-3.9L29.7,81v-0.2l0,0
			l7.7-7.7l-5.7-5.6l4.8-4.9l-5.8-5.8l-1.1,1.1V56l1.9-1.9l-1.9-1.9v-2.6l1.7,1.7l4.6-4.6l-4.8-4.8l1.5-1.5l1.2-1.2l0.8-0.8l0.3-0.3
			l0,0l0.3-0.3l-4.1-4.1l4.2-4.2l-5.7-5.4v-4.2l1.5,1.5l1.8-1.8l0.9-0.9l0.1-0.1l0.7-0.7l0.7-0.7L31.4,13h18.3l32,43.7V13H104
			L104,13z M36.2,21.2l-0.9,0.9l-0.6,0.6l3.2,3.2l3.2-3.2l-3.2-3.2l-0.7,0.7l-0.6,0.6L36.2,21.2L36.2,21.2z M36.3,39.9l-0.6,0.6
			l-0.3,0.3l4.6,4.6l4.6-4.6l-4.6-4.6l-3,3l-0.4,0.4L36.3,39.9L36.3,39.9z M47.2,50.3l0.5-0.5l0,0l0.5-0.5l-3.4-3.4l-3.4,3.4
			l3.4,3.4l1.2-1.2l0.7-0.7L47.2,50.3L47.2,50.3z M44.1,67.9l0.8-0.8l0.8-0.8L41,61.8l-4.6,4.6L41,71l1.5-1.5l1-1L44.1,67.9
			L44.1,67.9z M47.6,88.9l0.5-0.5l0.5-0.5L44,83.2l-4.6,4.6l4.6,4.6l2.8-2.8l0.4-0.4L47.6,88.9z"/>
		
			<linearGradient id="SVGID_1_" gradientUnits="userSpaceOnUse" x1="13.795" y1="60.815" x2="20.1072" y2="60.815" gradientTransform="matrix(1 0 0 -1 0 107.5)">
			<stop  offset="0" style="stop-color:#00AEE6"/>
			<stop  offset="1" style="stop-color:#00AEE6"/>
		</linearGradient>
		<polygon class="st0" points="13.8,46.7 17,43.5 20.1,46.7 17,49.8 		"/>
		
			<linearGradient id="SVGID_2_" gradientUnits="userSpaceOnUse" x1="22.405" y1="85.575" x2="27.135" y2="85.575" gradientTransform="matrix(1 0 0 -1 0 107.5)">
			<stop  offset="0" style="stop-color:#00AEE6"/>
			<stop  offset="1" style="stop-color:#00AEE6"/>
		</linearGradient>
		<polygon class="st1" points="22.4,21.9 24.8,19.6 27.1,21.9 24.8,24.3 		"/>
		
			<linearGradient id="SVGID_3_" gradientUnits="userSpaceOnUse" x1="2.235" y1="86.85" x2="4.8978" y2="86.85" gradientTransform="matrix(1 0 0 -1 0 107.5)">
			<stop  offset="0" style="stop-color:#00AEE6"/>
			<stop  offset="1" style="stop-color:#00AEE6"/>
		</linearGradient>
		<polygon class="st2" points="2.2,20.7 3.6,19.3 4.9,20.7 3.6,22 		"/>
		
			<rect x="27.5" y="57.8" transform="matrix(0.7071 -0.7071 0.7071 0.7071 -34.1314 39.6042)" class="st3" width="6.5" height="6.5"/>
		
			<linearGradient id="SVGID_4_" gradientUnits="userSpaceOnUse" x1="35.265" y1="42.24" x2="44.445" y2="42.24" gradientTransform="matrix(1 0 0 -1 0 107.5)">
			<stop  offset="0" style="stop-color:#00AEE6"/>
			<stop  offset="1" style="stop-color:#00AEE6"/>
		</linearGradient>
		<polygon class="st4" points="35.3,65.3 39.9,60.7 44.4,65.3 39.9,69.8 		"/>
		
			<linearGradient id="SVGID_5_" gradientUnits="userSpaceOnUse" x1="18.455" y1="38" x2="27.635" y2="38" gradientTransform="matrix(1 0 0 -1 0 107.5)">
			<stop  offset="0" style="stop-color:#00AEE6"/>
			<stop  offset="1" style="stop-color:#00AEE6"/>
		</linearGradient>
		<polygon class="st5" points="18.5,69.5 23,64.9 27.6,69.5 23,74.1 		"/>
		
			<linearGradient id="SVGID_6_" gradientUnits="userSpaceOnUse" x1="9.905" y1="70.525" x2="14.6392" y2="70.525" gradientTransform="matrix(1 0 0 -1 0 107.5)">
			<stop  offset="0" style="stop-color:#00AEE6"/>
			<stop  offset="1" style="stop-color:#00AEE6"/>
		</linearGradient>
		<polygon class="st6" points="9.9,37 12.3,34.6 14.6,37 12.3,39.3 		"/>
		
			<linearGradient id="SVGID_7_" gradientUnits="userSpaceOnUse" x1="15.155" y1="84.715" x2="19.885" y2="84.715" gradientTransform="matrix(1 0 0 -1 0 107.5)">
			<stop  offset="0" style="stop-color:#00AEE6"/>
			<stop  offset="1" style="stop-color:#00AEE6"/>
		</linearGradient>
		<polygon class="st7" points="15.2,22.8 17.5,20.4 19.9,22.8 17.5,25.2 		"/>
		
			<linearGradient id="SVGID_8_" gradientUnits="userSpaceOnUse" x1="3.1619" y1="80.83" x2="5.8248" y2="80.83" gradientTransform="matrix(1 0 0 -1 0 107.5)">
			<stop  offset="0" style="stop-color:#00AEE6"/>
			<stop  offset="1" style="stop-color:#00AEE6"/>
		</linearGradient>
		<polygon class="st8" points="3.2,26.7 4.5,25.3 5.8,26.7 4.5,28 		"/>
		
			<linearGradient id="SVGID_9_" gradientUnits="userSpaceOnUse" x1="7.665" y1="92.92" x2="10.3279" y2="92.92" gradientTransform="matrix(1 0 0 -1 0 107.5)">
			<stop  offset="0" style="stop-color:#00AEE6"/>
			<stop  offset="1" style="stop-color:#00AEE6"/>
		</linearGradient>
		<polygon class="st9" points="7.7,14.6 9,13.3 10.3,14.6 9,15.9 		"/>
		
			<linearGradient id="SVGID_10_" gradientUnits="userSpaceOnUse" x1="18.2006" y1="91.45" x2="20.8635" y2="91.45" gradientTransform="matrix(1 0 0 -1 0 107.5)">
			<stop  offset="0" style="stop-color:#00AEE6"/>
			<stop  offset="1" style="stop-color:#00AEE6"/>
		</linearGradient>
		<polygon class="st10" points="18.2,16.1 19.5,14.7 20.9,16.1 19.5,17.4 		"/>
		
			<linearGradient id="SVGID_11_" gradientUnits="userSpaceOnUse" x1="25.215" y1="62.49" x2="34.395" y2="62.49" gradientTransform="matrix(1 0 0 -1 0 107.5)">
			<stop  offset="0" style="stop-color:#00AEE6"/>
			<stop  offset="1" style="stop-color:#00AEE6"/>
		</linearGradient>
		<polygon class="st11" points="25.2,45 29.8,40.4 34.4,45 29.8,49.6 		"/>
		
			<linearGradient id="SVGID_12_" gradientUnits="userSpaceOnUse" x1="2.615" y1="92.01" x2="4.475" y2="92.01" gradientTransform="matrix(1 0 0 -1 0 107.5)">
			<stop  offset="0" style="stop-color:#00AEE6"/>
			<stop  offset="1" style="stop-color:#00AEE6"/>
		</linearGradient>
		<polygon class="st12" points="2.6,15.5 3.5,14.6 4.5,15.5 3.5,16.4 		"/>
		<g>
			
				<linearGradient id="SVGID_13_" gradientUnits="userSpaceOnUse" x1="47.2952" y1="22.2218" x2="3.7998" y2="58.7188" gradientTransform="matrix(1 0 0 -1 0 107.5)">
				<stop  offset="0" style="stop-color:#010000"/>
				<stop  offset="1" style="stop-color:#010000"/>
			</linearGradient>
			<polygon class="st13" points="15.2,61.1 18.4,57.9 21.6,61.1 18.4,64.3 			"/>
			
				<linearGradient id="SVGID_14_" gradientUnits="userSpaceOnUse" x1="53.3816" y1="43.5772" x2="10.9337" y2="79.1952" gradientTransform="matrix(1 0 0 -1 0 107.5)">
				<stop  offset="0" style="stop-color:#010000"/>
				<stop  offset="1" style="stop-color:#010000"/>
			</linearGradient>
			<polygon class="st14" points="17.5,37.6 22.1,33 26.7,37.6 22.1,42.2 			"/>
			
				<linearGradient id="SVGID_15_" gradientUnits="userSpaceOnUse" x1="46.3453" y1="53.4494" x2="4.0512" y2="88.9384" gradientTransform="matrix(1 0 0 -1 0 107.5)">
				<stop  offset="0" style="stop-color:#010000"/>
				<stop  offset="1" style="stop-color:#010000"/>
			</linearGradient>
			<polygon class="st15" points="15.9,30.5 18.3,28.1 20.6,30.5 18.3,32.8 			"/>
			
				<linearGradient id="SVGID_16_" gradientUnits="userSpaceOnUse" x1="37.952" y1="33.2328" x2="-5.1559" y2="69.4046" gradientTransform="matrix(1 0 0 -1 0 107.5)">
				<stop  offset="0" style="stop-color:#010000"/>
				<stop  offset="1" style="stop-color:#010000"/>
			</linearGradient>
			<polygon class="st16" points="11.1,53.7 13.4,51.3 15.8,53.7 13.4,56.1 			"/>
			
				<linearGradient id="SVGID_17_" gradientUnits="userSpaceOnUse" x1="55.576" y1="1.3439" x2="11.7301" y2="38.135" gradientTransform="matrix(1 0 0 -1 0 107.5)">
				<stop  offset="0" style="stop-color:#010000"/>
				<stop  offset="1" style="stop-color:#010000"/>
			</linearGradient>
			<polygon class="st17" points="20.5,78.7 22.9,76.4 25.3,78.7 22.9,81.1 			"/>
			
				<linearGradient id="SVGID_18_" gradientUnits="userSpaceOnUse" x1="33.5215" y1="60.3594" x2="-8.7726" y2="95.8484" gradientTransform="matrix(1 0 0 -1 0 107.5)">
				<stop  offset="0" style="stop-color:#010000"/>
				<stop  offset="1" style="stop-color:#010000"/>
			</linearGradient>
			<polygon class="st18" points="8.9,28.4 11.2,26.1 13.6,28.4 11.2,30.8 			"/>
			
				<linearGradient id="SVGID_19_" gradientUnits="userSpaceOnUse" x1="29.1589" y1="69.5146" x2="-13.1343" y2="105.0027" gradientTransform="matrix(1 0 0 -1 0 107.5)">
				<stop  offset="0" style="stop-color:#010000"/>
				<stop  offset="1" style="stop-color:#010000"/>
			</linearGradient>
			<polygon class="st19" points="7.5,20.9 8.8,19.6 10.2,20.9 8.8,22.3 			"/>
			
				<linearGradient id="SVGID_20_" gradientUnits="userSpaceOnUse" x1="37.9863" y1="68.9704" x2="-4.3099" y2="104.4611" gradientTransform="matrix(1 0 0 -1 0 107.5)">
				<stop  offset="0" style="stop-color:#010000"/>
				<stop  offset="1" style="stop-color:#010000"/>
			</linearGradient>
			<polygon class="st20" points="12.3,18.1 13.7,16.8 15,18.1 13.7,19.5 			"/>
			
				<linearGradient id="SVGID_21_" gradientUnits="userSpaceOnUse" x1="31.6929" y1="45.7546" x2="-11.6032" y2="82.0844" gradientTransform="matrix(1 0 0 -1 0 107.5)">
				<stop  offset="0" style="stop-color:#010000"/>
				<stop  offset="1" style="stop-color:#010000"/>
			</linearGradient>
			<polygon class="st21" points="8.2,43.5 10,41.7 11.7,43.5 10,45.3 			"/>
			
				<linearGradient id="SVGID_22_" gradientUnits="userSpaceOnUse" x1="25.1299" y1="59.4559" x2="-17.1679" y2="94.9479" gradientTransform="matrix(1 0 0 -1 0 107.5)">
				<stop  offset="0" style="stop-color:#010000"/>
				<stop  offset="1" style="stop-color:#010000"/>
			</linearGradient>
			<polygon class="st22" points="4.9,32.5 6.6,30.8 8.4,32.5 6.6,34.3 			"/>
			
				<linearGradient id="SVGID_23_" gradientUnits="userSpaceOnUse" x1="55.3347" y1="27.638" x2="12.95" y2="63.203" gradientTransform="matrix(1 0 0 -1 0 107.5)">
				<stop  offset="0" style="stop-color:#010000"/>
				<stop  offset="1" style="stop-color:#010000"/>
			</linearGradient>
			<polygon class="st23" points="19.2,52.9 23.2,48.9 27.1,52.9 23.2,56.8 			"/>
			
				<linearGradient id="SVGID_24_" gradientUnits="userSpaceOnUse" x1="41.4683" y1="71.7263" x2="-0.8329" y2="107.2212" gradientTransform="matrix(1 0 0 -1 0 107.5)">
				<stop  offset="0" style="stop-color:#010000"/>
				<stop  offset="1" style="stop-color:#010000"/>
			</linearGradient>
			<polygon class="st24" points="14.8,14.1 15.6,13.3 16.4,14.1 15.6,14.9 			"/>
		</g>
		
			<linearGradient id="SVGID_25_" gradientUnits="userSpaceOnUse" x1="23.475" y1="22.98" x2="34.815" y2="22.98" gradientTransform="matrix(1 0 0 -1 0 107.5)">
			<stop  offset="0" style="stop-color:#00AEE6"/>
			<stop  offset="1" style="stop-color:#00AEE6"/>
		</linearGradient>
		<polygon class="st25" points="23.5,84.5 29.1,78.8 34.8,84.5 29.1,90.2 		"/>
		
			<rect x="27.1" y="15.3" transform="matrix(0.7071 -0.7071 0.7071 0.7071 -3.6215 25.3067)" class="st3" width="3.3" height="3.3"/>
		
			<rect x="25.5" y="24.2" transform="matrix(0.7071 -0.7071 0.7071 0.7071 -11.0284 28.4261)" class="st3" width="6.6" height="6.6"/>
	</g>
	<g>
		<path d="M183.4,64.5c0,0.9,0,1.9-0.1,2.8c-0.1,0.9-0.2,1.9-0.4,3h-47.7c0.7,3.7,2.2,6.5,4.5,8.4s5.1,2.8,8.6,2.8
			c2.6,0,4.9-0.5,7-1.6c2-1.1,3.6-2.6,4.7-4.5h22c-1.1,3.7-2.7,6.9-4.9,9.9c-2.1,3-4.7,5.5-7.6,7.6c-2.9,2.1-6.1,3.6-9.8,4.8
			c-3.6,1.1-7.4,1.7-11.5,1.7c-5,0-9.6-0.9-13.9-2.6c-4.2-1.7-7.9-4.1-11.1-7.2s-5.6-6.7-7.3-10.8c-1.7-4.2-2.6-8.7-2.6-13.6
			c0-4.9,0.9-9.5,2.6-13.7c1.7-4.2,4.2-7.8,7.3-10.9c3.1-3.1,6.8-5.4,11.1-7.1c4.3-1.7,8.9-2.6,13.9-2.6c5.1,0,9.9,0.9,14.2,2.6
			c4.3,1.7,8,4.1,11.1,7.1c3.1,3,5.5,6.6,7.2,10.6C182.6,55.3,183.4,59.7,183.4,64.5z M148.4,48.2c-3.3,0-6,0.8-8.1,2.5
			c-2.2,1.7-3.7,4.1-4.6,7.4h26C159.6,51.5,155.2,48.2,148.4,48.2z"/>
		<rect x="193.5" y="33" width="22.1" height="64.2"/>
		<path d="M271.3,32.6v20.3h-8.6c-4,0-6.8,0.9-8.5,2.7c-1.7,1.8-2.6,4.8-2.6,8.8v32.7h-22.1V33h14.7l3.5,7.1
			c2.3-2.6,4.9-4.5,7.7-5.7c2.9-1.2,6.2-1.8,10-1.8L271.3,32.6L271.3,32.6z"/>
		<path d="M310.8,99.3c-5.2,0-10-0.9-14.4-2.6c-4.4-1.7-8.2-4.1-11.4-7.1c-3.2-3.1-5.7-6.7-7.5-10.8s-2.7-8.7-2.7-13.7
			s0.9-9.6,2.7-13.7c1.8-4.2,4.3-7.8,7.5-10.8c3.2-3.1,7-5.4,11.4-7.1c4.4-1.7,9.2-2.6,14.4-2.6s10,0.8,14.4,2.6
			c4.4,1.7,8.2,4.1,11.4,7.1c3.2,3.1,5.7,6.7,7.5,10.8s2.7,8.7,2.7,13.7s-0.9,9.6-2.7,13.7c-1.8,4.2-4.3,7.8-7.5,10.8
			c-3.2,3.1-7,5.4-11.4,7.1C320.9,98.5,316,99.3,310.8,99.3z M310.9,79.5c4,0,7.4-1.3,9.9-4s3.9-6.1,3.9-10.4s-1.3-7.8-3.9-10.4
			c-2.6-2.7-5.9-4-9.9-4s-7.4,1.3-10,4c-2.6,2.7-3.9,6.1-3.9,10.4s1.3,7.8,3.9,10.4C303.5,78.1,306.8,79.5,310.9,79.5z"/>
		<path d="M381.9,99.3c-4.4,0-8.3-0.6-11.8-1.7c-3.5-1.1-6.4-2.7-8.9-4.7c-2.4-2-4.3-4.5-5.6-7.3c-1.4-2.9-2-6-2-9.5h21.3
			c0,2.3,0.7,4,2.1,5.2c1.4,1.2,3.2,1.7,5.2,1.7c1.7,0,3.1-0.4,4.4-1.3s1.9-2.1,1.9-3.7c0-1.8-1.1-3.1-3.2-3.9
			c-2.1-0.8-4.7-1.4-7.7-2c-2.5-0.4-5-0.9-7.8-1.6c-2.7-0.7-5.3-1.7-7.5-3.2s-4.2-3.4-5.6-5.9c-1.5-2.5-2.2-5.6-2.2-9.5
			c0-3.3,0.6-6.2,2-8.7c1.3-2.6,3.1-4.8,5.5-6.7c2.4-1.9,5.3-3.3,8.6-4.3c3.4-1,7.1-1.5,11.2-1.5c4.1,0,7.9,0.5,11.2,1.6
			c3.3,1,6.2,2.5,8.5,4.4s4.2,4.2,5.5,6.9c1.3,2.7,2,5.7,2.1,8.9h-20.7c0-2.1-0.6-3.6-1.8-4.6c-1.2-1-2.9-1.5-4.9-1.5
			c-1.8,0-3.3,0.4-4.3,1.3s-1.6,2-1.6,3.5c0,1.8,1.1,3.1,3.3,3.7s4.8,1.3,7.8,1.8c2.5,0.5,5.2,1,8,1.7c2.8,0.6,5.3,1.7,7.7,3
			c2.3,1.4,4.3,3.3,5.8,5.8c1.5,2.5,2.3,5.7,2.3,9.8c0,3.3-0.7,6.4-2,9.1c-1.4,2.7-3.3,5.1-5.8,7c-2.5,1.9-5.5,3.4-9,4.5
			C390,98.8,386.1,99.3,381.9,99.3z"/>
	</g>
	
		<linearGradient id="SVGID_26_" gradientUnits="userSpaceOnUse" x1="191.455" y1="93.02" x2="217.535" y2="93.02" gradientTransform="matrix(1 0 0 -1 0 107.5)">
		<stop  offset="0" style="stop-color:#00AEE6"/>
		<stop  offset="1" style="stop-color:#00AEE6"/>
	</linearGradient>
	<ellipse transform="matrix(0.2567 -0.9665 0.9665 0.2567 138.0128 208.4078)" class="st26" cx="204.5" cy="14.5" rx="11" ry="11"/>
</g>
</svg>
