<?xml version="1.0" encoding="utf-8"?>
<!-- Generator: Adobe Illustrator 25.2.3, SVG Export Plug-In . SVG Version: 6.00 Build 0)  -->
<svg version="1.1" id="Слой_1" xmlns="http://www.w3.org/2000/svg" xmlns:xlink="http://www.w3.org/1999/xlink" x="0px" y="0px"
	 viewBox="0 0 511 511" style="enable-background:new 0 0 511 511;" xml:space="preserve">
<style type="text/css">
	.st0{fill:#BFBFBF;}
	.st1{fill:#EDEDED;}
	.st2{fill:#A3A3A3;}
	.st3{fill:#FFFFFF;}
	.st4{fill:#8C8C8C;}
</style>
<path class="st0" d="M452.2,405.5c0,21.2-8.4,41.6-23.4,56.6c-15,15-35.3,23.4-56.6,23.4l-30.7,17H171.1l-30.7-17
	c-42.8,0-78.1-33.8-79.9-76.5c-1.8-42.8,30.3-79.4,73-83.1l68.5-6h108.7l68.5,6C420.4,329.4,452.2,364,452.2,405.5z"/>
<path class="st1" d="M426.6,405.5c0,21.2-8.4,41.6-23.4,56.6c-15,15-35.3,23.4-56.6,23.4l-30.7,17H171.1l-30.7-17
	c-42.8,0-78.1-33.8-79.9-76.5c-1.8-42.8,30.3-79.4,73-83.1l68.5-6h83.1l68.5,6C394.9,329.4,426.6,364,426.6,405.5z"/>
<path class="st1" d="M401.1,442.9v34.1l-2.9,4.2c-8.3,2.9-17.1,4.3-25.9,4.3l-30.7,17H171.1l-30.7-17c-8.8,0-17.6-1.4-25.9-4.3
	l-2.9-4.2v-34.1c0-9.4,7.6-17,17-17H384C393.5,425.8,401.1,433.5,401.1,442.9z"/>
<path class="st0" d="M315.9,332.2c-14.2,13.2-32,21.9-51.1,25c-2.8,0.4-5.7,0.6-8.5,0.6c-22.3-1.2-43.4-10.2-59.6-25.5
	c2-4,3.8-8.1,5.3-12.4c4.6-12.5,7.8-25.5,9.5-38.7c0.4-2.7,0.8-5.2,1-7.6l87.5-0.2c1.7,15.8,5.3,31.4,10.6,46.4
	C312.1,324,313.9,328.1,315.9,332.2z"/>
<path class="st1" d="M290.4,339.8c-7.6,7.1-16.2,12.9-25.6,17.3c-2.8,0.4-5.7,0.6-8.5,0.6c-22.3-1.2-43.4-10.2-59.6-25.5
	c2-4,3.8-8.1,5.3-12.4c4.6-12.5,7.8-25.5,9.5-38.7l62.9-0.1c1.7,15.8,5.3,31.4,10.6,46.4C286.6,331.7,288.4,335.8,290.4,339.8z"/>
<path class="st1" d="M384,408.8v68.1c0,14.1-11.4,25.5-25.6,25.5H154.1c-14.1,0-25.5-11.4-25.5-25.5v-68.1"/>
<path class="st0" d="M367,170.3c4.5-22.5,7.4-45.2,8.5-68.1c0-25.5-17-51.1-42.6-76.6c0,9.2-3,18.2-8.5,25.5c0,0,0-17-25.6-34.1
	c-0.6,6.5-3.7,12.6-8.5,17c-7.8-12.5-19.9-21.6-34.1-25.5c-14.1,4-26.3,13.1-34.1,25.5c-4.9-4.4-7.9-10.5-8.5-17
	c-25.5,17-25.5,34.1-25.5,34.1c-5.6-7.4-8.6-16.3-8.5-25.5c-25.6,25.5-42.6,51.1-42.6,76.6c1.1,22.9,4,45.7,8.5,68.1H367z"/>
<path class="st2" d="M375.5,102.2c-1.6,23-5.4,45.9-11.5,68.1h-21.4c5.3-22.4,8.6-45.2,9.9-68.1c0-21.6-14.2-43.3-36.6-64.9
	c1.2-3.8,1.9-7.8,2.1-11.8C352.5,51.1,375.5,76.7,375.5,102.2z"/>
<path class="st1" d="M341.4,151c5.9-4.7,25.6-18.1,25.6,18.7c0,35-22.3,41.6-30.8,42.9H176.4c-8.5-1.3-30.8-7.9-30.8-42.9
	c0-36.8,19.8-23.4,25.6-18.7H341.4z"/>
<path class="st0" d="M341.5,141.5c0,3.2,0,6.4-0.1,9.5c0.3,20.6-1.9,41.2-6.6,61.3c-2.3,9-5.4,17.8-9.4,26.1
	c-12.1,25.6-33.1,51.1-69.2,51.1c-4.3,0-8.5-0.4-12.7-1.1h-0.2c-28.4-5.3-45.9-27.5-56.5-50c-3.9-8.4-7-17.2-9.3-26.1
	c-4.6-20.1-6.8-40.7-6.5-61.3c-0.1-3.1-0.1-6.2-0.1-9.5c-0.8-18.5,2.8-37,10.3-53.9c1.3-2.7,2.8-5.2,4.4-7.7
	c18.1,8.1,37.5,12.6,57.3,13.3c0.2,0.1,0.5,0.1,0.7,0c4,0.3,8.1,0.4,12.4,0.4c16.6,0.2,33.2-1.9,49.3-6c7.3-1.9,14.3-4.5,21.1-7.7
	C336,93.7,341.5,113.5,341.5,141.5z"/>
<path class="st1" d="M315.9,141.5c0,3.2,0,6.4-0.1,9.5c0.3,20.6-1.9,41.2-6.6,61.3c-2.3,9-5.4,17.8-9.4,26.1
	c-10.6,22.3-28,44.7-56.3,50h-0.2c-28.4-5.3-45.9-27.5-56.5-50c-3.9-8.4-7-17.2-9.3-26.1c-4.6-20.1-6.8-40.7-6.5-61.3
	c-0.1-3.1-0.1-6.2-0.1-9.5c-0.8-18.5,2.8-37,10.3-53.9c16.1,4.2,32.7,6.2,49.3,6c4.3,0,8.4-0.1,12.4-0.4c0.2,0.1,0.5,0.1,0.7,0
	c4,0.3,8.1,0.4,12.4,0.4c16.6,0.2,33.2-1.9,49.3-6C313.2,104.6,316.7,123,315.9,141.5z"/>
<path class="st3" d="M111.8,480.2c0.9,0.3,1.7,0.6,2.6,0.9l0.1,0.1c0.8,0.3,1.6,0.5,2.3,0.7c0.9,0.3,1.8,0.6,2.7,0.8
	c1.4,0.4,2.7,0.7,4.1,1c0.9,0.2,1.8,0.4,2.7,0.6c1.2,0.2,2.4,0.4,3.6,0.5c3.3,10.6,13.1,17.8,24.2,17.8h25.6
	c-11.1,0-20.9-7.2-24.2-17.8c-1.2-0.2-2.4-0.3-3.6-0.5c-0.9-0.2-1.8-0.4-2.7-0.6c-1.4-0.3-2.8-0.6-4.1-1c-0.9-0.2-1.8-0.5-2.7-0.8
	c-0.8-0.2-1.6-0.4-2.3-0.7l-0.1-0.1c-0.9-0.3-1.8-0.5-2.6-0.9c-34.8-13.3-55.8-48.9-50.6-85.8c5.2-36.9,35.2-65.3,72.3-68.6l68.5-6
	c4.6-12.5,7.8-25.5,9.5-38.7c0.4-2.7,0.8-5.2,1-7.6h0.2c-11-9.7-19.8-21.7-25.8-35.1c-3.9-8.3-7-16.9-9.2-25.8H202
	c-8.5-1.3-30.5-7.9-30.8-42.3h0c-4.5-22.5-7.4-45.2-8.5-68.1C164,82,172,62.8,185.5,47.7c-3.7-6.8-5.7-14.4-5.8-22.2
	c-25.6,25.5-42.6,51.1-42.6,76.6c1.1,22.9,4,45.7,8.5,68.1h0c0.3,34.5,22.3,41.1,30.8,42.3h1.4c2.2,8.9,5.3,17.5,9.2,25.8
	c6,13.4,14.8,25.4,25.8,35.1h-0.2c-0.3,2.4-0.6,4.9-1,7.6c-1.7,13.2-4.9,26.2-9.5,38.7l-68.5,6c-37.1,3.2-67.1,31.7-72.3,68.6
	C56,431.2,77,466.8,111.8,480.2z"/>
<path class="st4" d="M256.3,298.1c-33.2,0-59.8-19.4-77-56c-4.2-8.9-7.5-18.1-9.8-27.7c-4.8-20.8-7-42-6.7-63.3
	c-0.1-3-0.1-6.2-0.1-9.5c0-28.5,5.3-50.2,16.2-66.4c1.7-2.5,4.6-4,7.7-3.8c3,0.2,5.7,2,7.1,4.8c1.3,2.7,1.1,6-0.6,8.5
	c-9.9,17.2-14.5,37-13.3,56.8c0,3.2,0,6.2,0.1,9.2c-0.3,20,1.8,40,6.2,59.5c2.1,8.5,5,16.7,8.7,24.6c14.4,30.7,35.2,46.2,61.6,46.2
	c26.3,0,46.9-15.6,61.5-46.2c3.7-7.9,6.7-16.1,8.8-24.6c4.5-19.4,6.6-39.4,6.3-59.3c0.1-3.1,0.1-6.2,0.1-9.4
	c1.2-19.8-3.4-39.6-13.3-56.8c-1.8-2.5-2.1-5.8-0.7-8.6c1.3-2.8,4.1-4.6,7.1-4.8c3.1-0.2,6,1.3,7.7,3.9
	C344.7,91.3,350,113,350,141.5c0,3.3,0,6.5-0.1,9.7c0.3,21.3-2,42.5-6.8,63.2c-2.4,9.5-5.7,18.8-9.9,27.7
	C315.8,278.7,289.2,298.1,256.3,298.1z"/>
<path class="st4" d="M176.4,221.2c-0.4,0-0.9,0-1.3-0.1c-8.9-1.3-38.1-9-38.1-51.3c0-6.4,0-25.7,12.7-31.8c7.5-3.6,17-1.3,26.7,6.4
	c2.4,1.9,3.6,4.9,3.1,7.9s-2.5,5.5-5.3,6.7c-2.8,1.1-6,0.6-8.4-1.3c-4.7-3.8-8-4.6-8.8-4.4c0,0-3,2.6-3,16.5
	c0,26.9,14.8,33.2,23.6,34.5c4.4,0.7,7.6,4.6,7.2,9C184.6,217.7,180.9,221.2,176.4,221.2z"/>
<path class="st4" d="M336.2,221.2c-4.5,0-8.1-3.4-8.5-7.9c-0.3-4.4,2.8-8.4,7.2-9c8.8-1.3,23.6-7.6,23.6-34.5
	c0-13.8-3.1-16.5-3.1-16.5c-0.8-0.2-4,0.6-8.7,4.4c-2.4,1.9-5.6,2.4-8.4,1.3c-2.8-1.1-4.9-3.6-5.3-6.7c-0.4-3,0.7-6,3.1-7.9
	c9.7-7.8,19.2-10,26.7-6.4c12.7,6.1,12.7,25.5,12.7,31.8c0,42.3-29.1,50-38.1,51.3C337,221.1,336.6,221.2,336.2,221.2z"/>
<path class="st3" d="M134.2,334.2c-34.2,3-61.5,29.9-64.9,64.1c-0.2,2.4-0.3,4.8-0.4,7.2h-17c0-3,0.2-5.9,0.4-8.9
	c4.3-42.3,38-75.7,80.4-79.3L134.2,334.2z"/>
<g>
	<path class="st4" d="M94,340.3c2.6,3.6,7.4,4.8,11.4,2.8c8.9-5,18.7-8,28.9-8.9l-1.5-17c-12.6,1.1-24.8,4.9-35.8,11
		c-2.1,1.1-3.6,3-4.2,5.3S92.7,338.4,94,340.3z"/>
	<path class="st4" d="M51.9,405.5h17c0-2.4,0.1-4.8,0.4-7.2c0.3-2.5,0.7-5,1.2-7.5c0.7-4.4-1.9-8.6-6.1-10c-2.3-0.7-4.7-0.4-6.7,0.8
		c-2,1.2-3.4,3.3-3.8,5.6c-0.6,3.1-1.1,6.2-1.4,9.3C52.1,399.6,51.9,402.5,51.9,405.5z"/>
	<path class="st4" d="M82.8,363.2c1.2-1.7,1.7-3.8,1.5-5.8l-0.3-1.6c-0.2-0.5-0.4-1.1-0.7-1.6c-0.2-0.5-0.5-1-0.8-1.4
		c-0.4-0.4-0.7-0.9-1.2-1.3c-2.6-2.5-6.5-2.8-9.5-0.9c-3.2,1.9-4.9,5.6-4.4,9.3c0.3,1.1,0.7,2.2,1.4,3.1c0.7,0.9,1.5,1.7,2.4,2.2
		c1.9,1.1,4.2,1.5,6.4,1.1C79.7,366,81.5,364.9,82.8,363.2z"/>
	<path class="st4" d="M133.5,334.3c-4.6,0-8.3-3.6-8.5-8.2c-0.2-4.5,3.2-8.4,7.8-8.8l68.5-6c2.3-0.2,4.5,0.5,6.2,1.9
		c1.7,1.5,2.8,3.6,3,5.8c0.4,4.7-3.1,8.8-7.7,9.2l-68.5,6C134,334.3,133.7,334.3,133.5,334.3z"/>
	<path class="st4" d="M129.8,493.2c-0.4,0-0.7,0-1.1-0.1c-43.9-5.9-76.8-43.3-76.8-87.6c0-4.7,3.8-8.5,8.5-8.5
		c4.7,0,8.5,3.8,8.5,8.5c0,35.8,26.5,66,62,70.8c4.5,0.6,7.7,4.5,7.4,9C138,489.7,134.3,493.2,129.8,493.2L129.8,493.2z"/>
	<path class="st4" d="M382.8,493.2c-4.5,0-8.2-3.5-8.5-8c-0.3-4.5,3-8.4,7.4-9c36.1-4.8,62.8-36.1,62-72.5
		c-0.8-36.4-29-66.4-65.3-69.5l-68.5-6c-4.6-0.5-8-4.6-7.6-9.2c0.4-4.6,4.5-8.1,9.1-7.8l68.5,6c45,3.9,79.8,41,80.8,86.1
		c1,45.1-32.1,83.8-76.8,89.7C383.5,493.2,383.1,493.2,382.8,493.2z"/>
	<path class="st4" d="M358.5,511H154.1c-18.8,0-34-15.3-34.1-34.1v-51.1c0-4.7,3.8-8.5,8.5-8.5c4.7,0,8.5,3.8,8.5,8.5v51.1
		c0,9.4,7.6,17,17,17h204.4c9.4,0,17-7.6,17-17v-51.1c0-4.7,3.8-8.5,8.5-8.5c4.7,0,8.5,3.8,8.5,8.5v51.1
		C392.5,495.7,377.3,511,358.5,511z"/>
	<path class="st4" d="M256.3,366.2c-24.5-1.1-47.8-11.1-65.6-28c-2.6-2.6-3.2-6.6-1.6-9.9c1.9-3.7,3.5-7.5,4.9-11.4
		c5.2-14.3,8.5-29.1,10.1-44.2c0.3-3,2.3-5.6,5-6.9c2.8-1.2,6-0.9,8.5,0.9c2.5,1.8,3.8,4.8,3.4,7.8c-1.7,16.5-5.4,32.7-11.1,48.3
		c-1,2.6-1.9,4.9-2.8,7.1c13.9,11.6,31.1,18.4,49.2,19.2c18.1-0.8,35.4-7.6,49.2-19.2c-1-2.2-1.9-4.6-2.9-7.2
		c-5.6-15.6-9.4-31.9-11.1-48.4c-0.4-3,0.9-6.1,3.3-7.9c2.5-1.9,5.7-2.2,8.5-1c2.8,1.2,4.7,3.9,5.1,7c1.6,15.2,5,30.1,10.2,44.4
		c1.4,3.9,3,7.8,4.9,11.5c1.7,3.3,1,7.3-1.6,9.9C304.1,355.1,280.8,365.1,256.3,366.2z"/>
	<path class="st4" d="M367,161.8c-2.7,0-5.3-1.3-6.9-3.5c-1.6-2.2-2-5.1-1.2-7.7c4.9-15.7,7.6-32,8.1-48.4
		c0-17.4-9.4-36.6-28.6-58.5c-1.6,5-4.3,9.6-7.9,13.4c-2.4,2.4-6.1,3.2-9.3,1.8s-5.3-4.4-5.3-7.9c-1.6-8-6.2-15.1-12.7-20
		c-1.8,3.3-4.1,6.3-6.8,9c-1.9,1.9-4.7,2.8-7.4,2.4c-2.7-0.4-5-2.1-6.3-4.6c-6.2-9.6-15.6-16.8-26.4-20.3
		c-10.9,3.5-20.3,10.7-26.5,20.4c-1.3,2.4-3.6,4.1-6.3,4.5c-2.7,0.4-5.4-0.5-7.3-2.4c-2.7-2.7-5-5.7-6.8-9
		c-6.6,4.9-11.1,12.1-12.7,20.2c-0.2,3.4-2.3,6.4-5.5,7.6c-3.1,1.2-6.7,0.5-9.1-1.8c-3.6-3.8-6.3-8.4-7.9-13.4
		c-19.2,21.8-28.6,41.1-28.6,58.5c0.5,16.4,3.2,32.7,8.1,48.4c1.4,4.4-1,9.2-5.4,10.7c-4.4,1.5-9.2-0.9-10.7-5.3
		c-5.5-17.4-8.5-35.5-9-53.8c0-25.6,14.3-51.9,45.1-82.7c2.4-2.4,6.1-3.2,9.3-1.8s5.3,4.4,5.3,7.9c0,0.8,0.1,2,0.2,3.5
		c5.7-7.5,12.7-14,20.6-19.1c2.6-1.7,6-1.9,8.7-0.4c2.8,1.5,4.5,4.4,4.5,7.5c0.1,0.8,0.3,1.6,0.5,2.4c8.6-8.7,19.2-15.3,30.8-19
		c1.7-0.6,3.6-0.6,5.4,0c11.7,3.7,22.3,10.2,30.8,19c0.3-0.8,0.5-1.7,0.5-2.6c0.2-3.1,1.9-5.9,4.7-7.3c2.7-1.4,6-1.3,8.6,0.4
		c7.9,5.1,14.9,11.5,20.6,19.1c0.2-1.4,0.2-2.7,0.2-3.5c0-3.4,2.1-6.5,5.3-7.8c3.2-1.3,6.8-0.6,9.3,1.8c30.8,30.8,45.1,57,45.1,82.7
		c-0.4,18.3-3.4,36.4-9,53.8C373.9,159.5,370.7,161.8,367,161.8z"/>
	<path class="st4" d="M256.3,102.2c-25.5,0.7-50.8-4.2-74.1-14.6c-4.2-2.1-5.9-7.1-3.9-11.3c2-4.2,7.1-6,11.3-4
		c21,9.2,43.8,13.5,66.7,12.9c22.9,0.7,45.7-3.7,66.7-12.9c4.2-2,9.3-0.2,11.3,4c2,4.2,0.3,9.3-3.9,11.3
		C307.1,98,281.8,102.9,256.3,102.2z"/>
</g>
</svg>
