<?xml version="1.0" encoding="utf-8"?>
<!-- Generator: Adobe Illustrator 25.2.3, SVG Export Plug-In . SVG Version: 6.00 Build 0)  -->
<svg version="1.1" id="Слой_1" xmlns="http://www.w3.org/2000/svg" xmlns:xlink="http://www.w3.org/1999/xlink" x="0px" y="0px"
	 viewBox="0 0 512 512" style="enable-background:new 0 0 512 512;" xml:space="preserve">
<style type="text/css">
	.st0{fill:#A3A3A3;}
	.st1{fill:#BFBFBF;}
	.st2{fill:#EDEDED;}
	.st3{fill:#FFFFFF;}
	.st4{fill:#428DFF;}
	.st5{fill:#8C8C8C;}
</style>
<path class="st0" d="M358.2,145.1c0,0,9.9-77.8-8.5-102.4C324.1,8.5,255.8,8.5,255.8,8.5s-68.3,0-93.9,34.1
	c-18.5,24.6-8.5,102.4-8.5,102.4l100.2,59.7L358.2,145.1z"/>
<path class="st1" d="M330.3,151c0,0,8.5-81.2-7.3-106.9C301.2,8.5,243,8.5,243,8.5s-58.2,0-80.1,35.6
	c-15.7,25.7-7.3,106.9-7.3,106.9l85.4,62.3L330.3,151z"/>
<path class="st1" d="M452.1,406.3c0,21.3-8.4,41.6-23.5,56.7c-15,15-35.4,23.5-56.7,23.5l-30.8,17.1H170.5l-30.8-17.1
	c-42.9,0-78.2-33.8-80.1-76.7c-1.9-42.9,30.4-79.6,73.1-83.3l68.6-6h108.9l68.6,6C420.3,330,452.1,364.7,452.1,406.3z"/>
<path class="st2" d="M426.5,406.3c0,21.3-8.4,41.6-23.5,56.7c-15,15-35.4,23.5-56.7,23.5l-30.8,17.1H170.5l-30.8-17.1
	c-42.9,0-78.2-33.8-80.1-76.7c-1.9-42.9,30.4-79.6,73.1-83.3l68.6-6h83.3l68.6,6C394.7,330,426.5,364.7,426.5,406.3z"/>
<path class="st1" d="M308.2,314.5l-52.4,52.4l-52.4-52.4c4.3-13.1,7.1-26.7,8.5-40.4l87.6-0.2C301.1,287.7,304,301.3,308.2,314.5z"
	/>
<path class="st2" d="M400.9,443.7v34.1l-2.9,4.2c-8.4,2.9-17.1,4.3-26,4.3l-30.8,17.1H170.5l-30.8-17.1c-8.8,0-17.6-1.4-26-4.3
	l-2.9-4.2v-34.1c0-9.4,7.6-17.1,17.1-17.1h256C393.2,426.7,400.9,434.3,400.9,443.7z"/>
<path class="st2" d="M383.8,409.6v68.3c0,14.1-11.5,25.6-25.6,25.6H153.4c-14.1,0-25.6-11.5-25.6-25.6v-68.3"/>
<path class="st2" d="M341,151.3c5.9-4.7,25.7-18.1,25.7,18.8c0,35.1-22.4,41.7-30.9,43H175.8c-8.5-1.3-30.9-7.9-30.9-43
	c0-36.9,19.8-23.5,25.7-18.8H341z"/>
<path class="st1" d="M341.1,145L341.1,145c0,2.2,0,4.3-0.1,6.3c0.3,20.7-1.9,41.3-6.6,61.4c-2.3,9-5.4,17.8-9.4,26.2
	c-12.1,25.6-33.2,51.2-69.3,51.2c-4.3,0-8.5-0.4-12.7-1.1h-0.2c-28.5-5.3-46-27.6-56.6-50.1c-3.9-8.4-7.1-17.2-9.3-26.2
	c-4.6-20.1-6.8-40.8-6.5-61.4c-0.1-2.1-0.1-4.1-0.1-6.2c4.6-13.8,7.5-28.1,8.5-42.7c0-17.1,8.5-42.7,25.6-51.2
	c1.5-0.7,3-1.4,4.5-1.9c11.4-4.1,19.5-0.5,33.9,1.1c4.2,0.5,8.5,0.8,12.8,0.8c7.1,0,14.1-0.6,21.1-1.9c9.9-3.2,20.7-2.5,30.1,1.9
	c17.1,8.5,25.6,34.1,25.6,51.2C333.6,116.9,336.5,131.2,341.1,145z"/>
<path class="st2" d="M315.5,145L315.5,145c0,2.2,0,4.3-0.1,6.3c0.3,20.7-1.9,41.3-6.6,61.4c-2.3,9-5.4,17.8-9.4,26.2
	c-10.6,22.4-28.1,44.8-56.4,50.1h-0.2c-28.5-5.3-46-27.6-56.6-50.1c-3.9-8.4-7.1-17.2-9.3-26.2c-4.6-20.1-6.8-40.8-6.5-61.4
	c-0.1-2.1-0.1-4.1-0.1-6.2c4.6-13.8,7.5-28.1,8.5-42.7c0-17.1,8.5-42.7,25.6-51.2c1.5-0.7,3-1.4,4.5-1.9c7,1.2,14,1.9,21.1,1.9
	c4.3,0,8.6-0.3,12.8-0.8c14.4-1.6,22.5-5.2,33.9-1.1c1.6,0.5,3.1,1.1,4.5,1.9c17.1,8.5,25.6,34.1,25.6,51.2
	C308,116.9,310.9,131.2,315.5,145z"/>
<path class="st1" d="M281.4,503.5l-17.1-98.1h-17.1l-17.1,98.1H281.4z"/>
<path class="st1" d="M278,389.1l-1.9,7.6c-1.5,5.9-6,10.6-11.9,12.2c-1.5,0.4-3,0.7-4.6,0.7H252c-1.6,0-3.1-0.2-4.6-0.7
	c-5.9-1.6-10.5-6.3-11.9-12.2l-1.9-7.6l19.8-24.6l2.4,2.4l0.8-0.8L278,389.1z"/>
<path class="st2" d="M255.8,366.9l-34.1,34.1c0,0-42.7-42.7-51.2-76.8l17.1-25.6L255.8,366.9z"/>
<path class="st2" d="M341.1,324.3c-8.5,34.1-51.2,76.8-51.2,76.8l-34.1-34.1l68.3-68.3L341.1,324.3z"/>
<path class="st3" d="M175.8,213.1h1.4c2.2,8.9,5.3,17.6,9.2,25.9c6,13.4,14.8,25.4,25.8,35.2h-0.2c-1.4,12.9-4,25.7-7.8,38.1l9-13.6
	l15.9,15.9c4.3-13.1,7.1-26.7,8.5-40.4h0.2c-11-9.7-19.8-21.7-25.8-35.2c-3.9-8.3-7-17-9.2-25.9h-1.4c-8.5-1.3-30.9-7.9-30.9-43
	c0-16.8,4.1-23.1,9.2-24.6l-0.6-0.4c0,0-9.9-77.8,8.5-102.4c4-5.2,8.9-9.7,14.4-13.3c18-12.4,39-19.6,60.9-20.6
	c-4.3-0.2-7-0.3-7-0.3s-2.6,0-7,0.3c-3.6-0.2-5.8-0.3-5.8-0.3s-40.6,0.1-66.7,20.8c-5.5,3.6-10.4,8.1-14.4,13.3
	c-18.5,24.6-8.5,102.4-8.5,102.4l0.6,0.4c-5,1.5-9.2,7.8-9.2,24.6C144.9,205.1,167.2,211.8,175.8,213.1z"/>
<path class="st3" d="M111,481.1c0.9,0.3,1.7,0.6,2.6,0.9l0.1,0.1c0.8,0.3,1.6,0.5,2.3,0.7c0.9,0.3,1.8,0.6,2.8,0.8
	c1.4,0.4,2.7,0.7,4.1,1c0.9,0.2,1.8,0.4,2.7,0.6c1.2,0.2,2.4,0.4,3.6,0.5c3.3,10.6,13.2,17.8,24.3,17.8H179
	c-11.1,0-20.9-7.2-24.3-17.8c-1.2-0.2-2.4-0.3-3.6-0.5c-0.9-0.2-1.8-0.4-2.7-0.6c-1.4-0.3-2.8-0.6-4.1-1c-0.9-0.2-1.8-0.5-2.8-0.8
	c-0.8-0.2-1.6-0.4-2.3-0.7l-0.1-0.1c-0.9-0.3-1.8-0.5-2.6-0.9c-34.9-13.4-55.9-49-50.7-86c5.2-37,35.2-65.5,72.4-68.7l38.5-3.4l6-9
	l-15.4-15.4L171.3,323l-38.5,3.4c-37.2,3.2-67.2,31.7-72.4,68.7C55.1,432.1,76.1,467.7,111,481.1z"/>
<path class="st4" d="M255.8,59.7h-1.2c-4.7,0-8.5-3.8-8.5-8.5c0-4.7,3.8-8.5,8.5-8.5h1.2c4.7,0,8.5,3.8,8.5,8.5
	C264.3,55.9,260.5,59.7,255.8,59.7z"/>
<path class="st5" d="M255.8,298.7c-33.2,0-59.9-19.4-77.2-56.1c-4.2-8.9-7.5-18.2-9.9-27.7c-4.8-20.8-7.1-42.1-6.8-63.5
	c-0.1-1.9-0.1-4.1-0.1-6.3c0-4.7,3.8-8.6,8.5-8.6c4.7,0,8.6,3.8,8.6,8.5v0.1c0,2,0,3.9,0.1,5.9c-0.3,20.1,1.8,40.1,6.2,59.7
	c2.1,8.5,5,16.7,8.8,24.6c14.5,30.8,35.2,46.3,61.8,46.3c26.3,0,47-15.6,61.6-46.3c3.7-7.9,6.7-16.2,8.8-24.7
	c4.5-19.5,6.6-39.4,6.3-59.4c0.1-2.2,0.1-4.1,0.1-6.1c0-4.7,3.8-8.6,8.5-8.6c4.7,0,8.6,3.8,8.6,8.5c0,2.3,0,4.5-0.1,6.7
	c0.3,21.3-2,42.5-6.8,63.2c-2.4,9.6-5.7,18.8-9.9,27.7C315.4,279.3,288.8,298.7,255.8,298.7z"/>
<path class="st5" d="M175.8,221.6c-0.4,0-0.9,0-1.3-0.1c-8.9-1.3-38.2-9-38.2-51.4c0-6.4,0-25.7,12.8-31.9c7.5-3.6,17-1.3,26.8,6.4
	c2.5,1.9,3.7,4.9,3.3,8s-2.5,5.7-5.4,6.8c-2.9,1.1-6.2,0.6-8.5-1.4c-4.7-3.8-7.9-4.6-8.8-4.4c0,0-3.1,2.6-3.1,16.5
	c0,27,14.8,33.2,23.6,34.6c4.4,0.7,7.6,4.6,7.2,9.1C183.9,218.2,180.2,221.6,175.8,221.6z"/>
<path class="st5" d="M335.8,221.6c-4.5,0-8.2-3.4-8.5-7.9c-0.3-4.4,2.8-8.4,7.2-9.1c8.8-1.3,23.6-7.6,23.6-34.6
	c0-13.9-3.1-16.5-3.1-16.5c-3.3,0.5-6.3,2.1-8.7,4.4c-2.4,2-5.6,2.5-8.5,1.4c-2.9-1.1-5-3.7-5.4-6.8c-0.4-3.1,0.8-6.1,3.3-8
	c9.7-7.8,19.3-10,26.8-6.4c12.8,6.1,12.8,25.5,12.8,31.9c0,42.4-29.2,50.1-38.2,51.4C336.7,221.6,336.3,221.6,335.8,221.6z"/>
<path class="st3" d="M133.5,334.9c-34.3,3-61.6,29.9-65.1,64.2c-0.2,2.4-0.3,4.8-0.4,7.2H51c0-3,0.2-5.9,0.4-8.9
	c4.3-42.4,38.1-75.8,80.6-79.5L133.5,334.9z"/>
<g>
	<path class="st5" d="M93.2,341c2.6,3.6,7.4,4.8,11.4,2.8c8.9-5,18.8-8,28.9-8.9l-1.5-17c-12.6,1.1-24.8,4.9-35.8,11.1
		c-2.1,1.1-3.6,3-4.2,5.3S91.8,339,93.2,341z"/>
	<path class="st5" d="M51,406.3h17.1c0-2.4,0.1-4.8,0.4-7.2c0.3-2.5,0.7-5,1.2-7.5c0.7-4.4-1.9-8.6-6.2-10c-2.3-0.7-4.7-0.4-6.7,0.9
		s-3.4,3.3-3.8,5.6c-0.6,3.1-1.1,6.2-1.4,9.3C51.2,400.3,51,403.3,51,406.3z"/>
	<path class="st5" d="M81.9,363.9c1.2-1.7,1.7-3.8,1.5-5.9l-0.3-1.6c-0.2-0.6-0.4-1.1-0.7-1.6c-0.2-0.5-0.5-1-0.8-1.4
		c-0.4-0.4-0.7-0.9-1.2-1.3c-2.6-2.5-6.6-2.8-9.6-0.9c-3.2,1.9-4.9,5.6-4.4,9.3c0.3,1.1,0.7,2.2,1.4,3.1c0.6,0.9,1.5,1.7,2.4,2.2
		c2,1.1,4.2,1.5,6.4,1.1C78.8,366.7,80.7,365.6,81.9,363.9z"/>
	<path class="st5" d="M132.7,334.9c-4.6,0-8.3-3.6-8.5-8.2c-0.2-4.6,3.2-8.5,7.8-8.9l38.6-3.3c2.3-0.2,4.5,0.5,6.2,1.9
		s2.8,3.6,3,5.8c0.2,2.3-0.5,4.5-2,6.2c-1.5,1.7-3.5,2.8-5.8,3l-38.6,3.3C133.2,334.9,133,334.9,132.7,334.9z"/>
	<path class="st5" d="M129.1,494.2c-0.4,0-0.7,0-1.1-0.1c-44-5.9-76.9-43.4-77-87.8c0-4.7,3.8-8.5,8.5-8.5c4.7,0,8.5,3.8,8.5,8.5
		c0,35.8,26.6,66.1,62.1,70.9c4.5,0.6,7.7,4.5,7.4,9C137.3,490.7,133.6,494.2,129.1,494.2L129.1,494.2z"/>
	<path class="st5" d="M382.5,494.2c-4.5,0-8.2-3.5-8.5-8c-0.3-4.5,3-8.4,7.4-9c36.2-4.8,62.9-36.1,62.1-72.6
		c-0.9-36.5-29-66.5-65.4-69.6l-38.6-3.3c-2.3-0.2-4.3-1.3-5.8-3c-1.5-1.7-2.2-4-2-6.2c0.2-2.3,1.2-4.4,3-5.8c1.7-1.5,4-2.2,6.3-1.9
		l38.6,3.3c45.1,3.9,80,41.1,81,86.3c1,45.2-32.1,84-77,89.9C383.3,494.1,382.9,494.2,382.5,494.2z"/>
	<path class="st5" d="M358.2,512H153.4c-18.8,0-34.1-15.3-34.1-34.1v-51.2c0-4.7,3.8-8.5,8.5-8.5c4.7,0,8.5,3.8,8.5,8.5v51.2
		c0,9.4,7.6,17.1,17.1,17.1h204.8c9.4,0,17.1-7.6,17.1-17.1v-51.2c0-4.7,3.8-8.5,8.5-8.5c4.7,0,8.5,3.8,8.5,8.5v51.2
		C392.3,496.7,377,512,358.2,512z"/>
	<path class="st5" d="M203.4,323.1c-2.7,0-5.3-1.3-6.9-3.6c-1.6-2.2-2-5.1-1.2-7.7c4.1-12.6,6.8-25.5,8.1-38.7
		c0.5-4.7,4.7-8.1,9.4-7.6c4.7,0.5,8.1,4.7,7.6,9.4c-1.5,14.4-4.5,28.5-8.9,42.2C210.3,320.7,207.1,323.1,203.4,323.1z"/>
	<path class="st5" d="M308.2,323.1c-3.7,0-6.9-2.4-8.1-5.8c-4.4-13.8-7.4-27.9-9-42.3c-0.5-4.7,2.8-8.9,7.5-9.5
		c2.3-0.3,4.5,0.3,6.3,1.8s2.9,3.5,3.2,5.7c1.4,13.2,4.2,26.2,8.2,38.9c1.5,4.5-0.9,9.3-5.4,10.8C310,322.9,309.1,323.1,308.2,323.1
		z"/>
	<path class="st5" d="M153.4,153.6c-4.3,0-7.9-3.2-8.5-7.5c-1.1-8.3-9.8-82,10.2-108.6C182.9,0.4,252.8,0,255.8,0
		c3,0,5.9,1.6,7.4,4.3c1.5,2.6,1.5,5.9,0,8.5s-4.3,4.3-7.4,4.3c-0.6,0-64.3,0.4-87.1,30.7c-13.4,17.9-9.5,75.5-6.9,96.2
		c0.6,4.7-2.7,8.9-7.4,9.5C154.1,153.6,153.8,153.6,153.4,153.6z"/>
	<path class="st5" d="M358.2,153.6c-0.4,0-0.7,0-1.1-0.1c-4.7-0.6-8-4.9-7.4-9.5c2.6-20.7,6.5-78.3-6.9-96.2
		c-22.8-30.4-86.4-30.7-87-30.7c-4.7,0-8.5-3.8-8.5-8.5c0-4.7,3.8-8.5,8.5-8.5c3,0,72.8,0.4,100.7,37.5
		c20,26.6,11.2,100.3,10.2,108.6C366.1,150.4,362.5,153.6,358.2,153.6z"/>
	<path class="st5" d="M170.5,153.6c-2.7,0-5.3-1.3-6.9-3.5c-1.6-2.2-2-5.1-1.2-7.7c4.3-12.9,7.1-26.4,8.1-40
		c0-21.2,10.6-49,30.3-58.8c10.3-5.1,22.1-6.2,33.2-3.1c7.2,1.4,14.5,2.1,21.9,2.2c4.7,0,8.5,3.8,8.5,8.5c0,4.7-3.8,8.5-8.5,8.5
		c-8.3-0.1-16.6-0.9-24.7-2.4c-7.5-2.4-15.6-1.8-22.7,1.5c-12.5,6.2-20.9,27.6-20.9,43.6c-1,15.4-4,30.7-9,45.4
		C177.4,151.2,174.1,153.6,170.5,153.6z"/>
	<path class="st5" d="M341.1,153.6c-3.7,0-6.9-2.4-8.1-5.8c-4.9-14.7-7.9-29.9-9-45.4c0-16-8.4-37.3-20.9-43.6
		c-7.1-3.3-15.2-3.9-22.7-1.5c-8.1,1.6-16.4,2.4-24.7,2.4c-4.7,0-8.5-3.8-8.5-8.5c0-4.7,3.8-8.5,8.5-8.5c7.3-0.1,14.7-0.8,21.9-2.2
		c11.1-3.1,22.9-2,33.2,3.1c19.7,9.8,30.3,37.7,30.3,58.8c1,13.6,3.8,27,8.1,40c0.9,2.6,0.4,5.5-1.2,7.7
		C346.4,152.3,343.9,153.6,341.1,153.6z"/>
	<path class="st5" d="M221.7,409.6c-2.3,0-4.4-0.9-6-2.5c-1.8-1.8-44.4-44.8-53.4-80.8c-0.6-2.3-0.2-4.8,1.2-6.8l17.1-25.6
		c1.4-2.1,3.7-3.5,6.3-3.8c2.5-0.3,5.1,0.6,6.9,2.5l68.3,68.3c1.6,1.6,2.5,3.8,2.5,6c0,2.3-0.9,4.4-2.5,6l-34.1,34.1
		C226.1,408.7,223.9,409.6,221.7,409.6z M179.8,325.7c7.4,23.5,31,51,42.1,63.1l21.9-21.9l-54.9-54.9L179.8,325.7z"/>
	<path class="st5" d="M289.9,409.6c-2.3,0-4.4-0.9-6-2.5L249.8,373c-1.6-1.6-2.5-3.8-2.5-6s0.9-4.4,2.5-6l68.3-68.3
		c1.8-1.8,4.3-2.7,6.9-2.5c2.5,0.3,4.8,1.6,6.3,3.8l17.1,25.6c1.3,2,1.8,4.5,1.2,6.8c-9,36-51.6,79-53.4,80.8
		C294.4,408.7,292.2,409.6,289.9,409.6z M267.9,366.9l21.9,21.9c11.1-12.1,34.6-39.7,42.1-63.1l-9.1-13.7L267.9,366.9z"/>
	<path class="st5" d="M259.6,418.1H252c-2.4,0-4.7-0.4-7-1c-8.8-2.4-15.6-9.4-17.8-18.3l-1.9-7.6c-1-4.5,1.8-9.1,6.3-10.2
		c4.5-1.1,9.1,1.6,10.3,6.1l1.9,7.6c1.1,3.7,4.4,6.3,8.3,6.4h7.5c0.7,0,1.5-0.1,2.2-0.3c3-0.8,5.3-3.1,6.1-6.1l1.9-7.6
		c1.2-4.5,5.8-7.3,10.3-6.2c4.6,1.1,7.3,5.7,6.2,10.3l-1.9,7.6c-2.2,9-9.1,16-18,18.4C264.1,417.8,261.9,418.1,259.6,418.1z"/>
	<path class="st5" d="M230.2,512c-0.5,0-1,0-1.5-0.1c-2.2-0.4-4.2-1.7-5.5-3.5c-1.3-1.9-1.8-4.2-1.4-6.4l17.1-93.9
		c0.5-3.1,2.6-5.7,5.5-6.7c2.9-1.1,6.2-0.5,8.5,1.6c2.4,2,3.4,5.2,2.8,8.2L238.6,505C237.9,509,234.3,512,230.2,512z"/>
	<path class="st5" d="M281.4,512c-4.1,0-7.6-3-8.4-7l-17.1-93.9c-0.7-3,0.4-6.2,2.8-8.2c2.4-2,5.6-2.6,8.5-1.6
		c2.9,1.1,5,3.7,5.5,6.7l17.1,93.9c0.4,2.2-0.1,4.5-1.4,6.4c-1.3,1.9-3.3,3.1-5.5,3.5C282.4,512,281.9,512,281.4,512z"/>
</g>
</svg>
