<?xml version="1.0" encoding="utf-8"?>
<!-- Generator: Adobe Illustrator 25.2.3, SVG Export Plug-In . SVG Version: 6.00 Build 0)  -->
<svg version="1.1" id="Слой_1" xmlns="http://www.w3.org/2000/svg" xmlns:xlink="http://www.w3.org/1999/xlink" x="0px" y="0px"
	 viewBox="0 0 512 512" style="enable-background:new 0 0 512 512;" xml:space="preserve">
<style type="text/css">
	.st0{opacity:0.5;}
</style>
<path class="st0" d="M256,512c-88.2,0-160-71.8-160-160V122.7c0-8.8,7.2-16,16-16s16,7.2,16,16V352c0,70.6,57.4,128,128,128
	s128-57.4,128-128V117.3c0-47.1-38.3-85.3-85.3-85.3c-47.1,0-85.3,38.3-85.3,85.3v213.3c0,23.5,19.1,42.7,42.7,42.7
	s42.7-19.1,42.7-42.7v-208c0-8.8,7.2-16,16-16s16,7.2,16,16v208c0,41.2-33.5,74.7-74.7,74.7s-74.7-33.5-74.7-74.7V117.3
	C181.3,52.7,234,0,298.7,0C363.4,0,416,52.7,416,117.3V352C416,440.2,344.2,512,256,512z"/>
</svg>
