<?xml version="1.0" encoding="utf-8"?>
<!-- Generator: Adobe Illustrator 25.2.3, SVG Export Plug-In . SVG Version: 6.00 Build 0)  -->
<svg version="1.1" id="Capa_1" xmlns="http://www.w3.org/2000/svg" xmlns:xlink="http://www.w3.org/1999/xlink" x="0px" y="0px"
	 viewBox="0 0 512 512" style="enable-background:new 0 0 512 512;" xml:space="preserve">
<style type="text/css">
	.st0{opacity:0.5;}
</style>
<g class="st0">
	<g>
		<g>
			<path d="M256,0C114.8,0,0,114.8,0,256s114.8,256,256,256s256-114.8,256-256S397.2,0,256,0z M256,490.7
				C126.6,490.7,21.3,385.4,21.3,256S126.6,21.3,256,21.3S490.7,126.6,490.7,256S385.4,490.7,256,490.7z"/>
			<path d="M393.4,299.1c-5.8-1.4-11.5,2.2-12.8,7.9c-13.8,57.9-65,98.3-124.5,98.3c-59.7,0-110.9-40.5-124.6-98.4
				c-1.4-5.8-7.1-9.2-12.8-7.9c-5.7,1.4-9.3,7.1-7.9,12.8c16,67.6,75.8,114.9,145.3,114.9c69.5,0,129.3-47.2,145.3-114.7
				C402.7,306.2,399.1,300.5,393.4,299.1z"/>
			<circle cx="170.7" cy="192" r="21.3"/>
			<circle cx="341.3" cy="192" r="21.3"/>
		</g>
	</g>
</g>
</svg>
