<svg xmlns="http://www.w3.org/2000/svg" xmlns:xlink="http://www.w3.org/1999/xlink" x="0px" y="0px" viewBox="0 0 485.5 463" style="enable-background:new 0 0 485.5 463;" xml:space="preserve">
<g>
	<path fill="#EF964F" class="st0" d="M477.9,193.4L372,296.7l25.1,145.9c0.3,2,0.3,3.8,0.3,5.8c0,7.6-3.5,14.6-12,14.6c-4.1,0-8.2-1.5-11.7-3.5
		l-131-68.9l-131,68.9c-3.8,2-7.6,3.5-11.7,3.5c-8.5,0-12.3-7-12.3-14.6c0-2,0.3-3.8,0.6-5.8l25.1-145.9L7.3,193.4
		c-3.5-3.8-7.3-8.8-7.3-14c0-8.8,9-12.2,16.3-13.4l146.4-21.3L228.4,12c2.6-5.5,7.6-12,14.3-12s11.7,6.4,14.3,12l65.6,132.7
		L469.1,166c7,1.2,16.3,4.7,16.3,13.4C485.5,184.7,481.7,189.6,477.9,193.4z"/>
</g>
</svg>
