<?xml version="1.0" encoding="utf-8"?>
<!-- Generator: Adobe Illustrator 25.2.3, SVG Export Plug-In . SVG Version: 6.00 Build 0)  -->
<svg version="1.1" id="Слой_1" xmlns="http://www.w3.org/2000/svg" xmlns:xlink="http://www.w3.org/1999/xlink" x="0px" y="0px"
	 viewBox="0 0 512 512" style="enable-background:new 0 0 512 512;" xml:space="preserve">
<style type="text/css">
	.st0{fill:#A3A3A3;}
	.st1{fill:#BFBFBF;}
	.st2{fill:#EDEDED;}
	.st3{fill:#FFFFFF;}
	.st4{fill:#8C8C8C;}
</style>
<path class="st0" d="M436.7,359.1c5.5-15.7,2-35.8-10.2-60.4c-17.1-34.1,8.5-59.7,8.5-102.4s-34.1-51.2-34.1-93.9
	S366.8,8.5,315.6,8.5s-59.7,17.1-59.7,17.1s-8.5-17.1-59.7-17.1s-85.3,51.2-85.3,93.9s-34.1,51.2-34.1,93.9s25.6,68.3,8.5,102.4
	c-12.3,24.6-15.7,44.8-10.2,60.5"/>
<path class="st1" d="M407.1,359.1c5-15.7,1.9-35.8-9.3-60.4c-15.5-34.1,7.7-59.7,7.7-102.4s-31-51.2-31-93.9s-31-93.9-77.4-93.9
	s-54.2,17.1-54.2,17.1s-7.7-17.1-54.2-17.1s-77.4,51.2-77.4,93.9s-31,51.2-31,93.9s23.2,68.3,7.7,102.4
	c-11.2,24.6-14.2,44.8-9.3,60.5"/>
<path class="st2" d="M307,128c0.1,1.1,59.3,26.7,59.3,28c1.9,47.9-21.9,55.8-30.4,57.1H175.8c-8.5-1.3-31.8-12.4-31.8-47.5
	c0-1.3,77.7-29.1,111.9-97.4L307,128z"/>
<path class="st1" d="M452.1,406.3c0,38.2-27,71.1-64.4,78.6c-5.2,1-10.4,1.6-15.7,1.5H139.7c-5.3,0-10.5-0.5-15.7-1.5
	c-39.1-7.8-66.5-43.2-64.3-83c2.2-39.8,33.4-72,73.1-75.4l68.6-6h108.9l68.6,6C420.3,330,452.1,364.7,452.1,406.3z"/>
<path class="st2" d="M426.5,406.3c0,38.2-27,71.1-64.4,78.6c-5.2,1-10.4,1.6-15.7,1.5H139.7c-5.3,0-10.5-0.5-15.7-1.5
	c-39.1-7.8-66.5-43.2-64.3-83c2.2-39.8,33.4-72,73.1-75.4l68.6-6h83.3l68.6,6C394.7,330,426.5,364.7,426.5,406.3z"/>
<path class="st2" d="M400.9,426.7v25.6c-0.1,12.2-4.8,23.8-13.2,32.6c-5.2,1-10.4,1.6-15.7,1.5H139.7c-5.3,0-10.5-0.5-15.7-1.5
	c-8.4-8.8-13.1-20.4-13.2-32.6v-25.6c0-9.4,7.7-17,17.1-17.1h256C393.2,409.6,400.8,417.3,400.9,426.7z"/>
<path class="st2" d="M383.8,392.5v59.7c0,28.3-22.9,51.2-51.2,51.2H179c-28.3,0-51.2-22.9-51.2-51.2v-59.7"/>
<path class="st2" d="M315.5,332.8c-2-4-3.8-8.1-5.3-12.4c-5.4-15-9-30.6-10.7-46.5l-87.6,0.2c-1.6,15.8-5.2,31.4-10.6,46.3
	c-1.5,4.2-3.3,8.4-5.3,12.4H315.5z"/>
<path class="st2" d="M358.2,324.6c-0.9,5.2-12.5,67.9-102.4,67.9s-101.5-62.7-102.4-67.9l48-4.2h108.9L358.2,324.6z"/>
<path class="st1" d="M341.1,76.8l-0.1,75.3c-0.5,34-3.8,61.2-16,86.8c-12.1,25.6-33.2,51.2-69.3,51.2c-4.3,0-8.5-0.4-12.7-1.1h-0.2
	c-28.5-5.3-46-27.6-56.6-50.1c-12.1-25.6-15.4-52.9-15.8-86.8l8.4-83.9c19.6-11.5,41-19.7,63.2-24.4c4.5-0.8,9-1.2,13.6-1.2
	C289.9,42.7,341.1,76.8,341.1,76.8z"/>
<path class="st2" d="M315.5,76.8l-0.1,75.3c-0.5,34-3.8,61.2-16,86.8c-10.6,22.4-28.1,44.8-56.4,50.1h-0.2
	c-28.5-5.3-46-27.6-56.6-50.1c-12.1-25.6-15.4-52.9-15.8-86.8l8.4-83.9c19.6-11.5,41-19.7,63.2-24.4
	C275.2,49.9,315.5,76.8,315.5,76.8z"/>
<path class="st1" d="M383.8,170.7c0,0-93.9-25.6-128-110.9c-34.1,85.3-128,110.9-128,110.9l34.1-136.5h187.7L383.8,170.7z"/>
<path class="st3" d="M124,484.9c5.2,1,10.4,1.6,15.7,1.5h1.3c9.7,10.9,23.5,17.1,38.1,17.1h25.6c-14.5,0-28.4-6.2-38.1-17.1h-1.3
	c-5.3,0-10.5-0.5-15.7-1.5c-26.8-5.3-49-24-58.9-49.4s-6.2-54.2,9.9-76.3l0,0c-5.5-15.7-2-35.9,10.2-60.5
	c17.1-34.1-8.5-59.7-8.5-102.4s34.1-51.2,34.1-93.9c0.2-12.1,2.6-24,7.2-35.2c10.7-29.5,34-55.3,64.9-58.3
	c-3.9-0.2-7.9-0.4-12.4-0.4c-0.7,0-1.3,0.1-2,0.1c-1.7-0.1-3.4-0.1-5.3-0.1c-33.9,0-59.5,27.3-70.9,58.7c-4.6,11.2-7,23.1-7.2,35.2
	c0,42.7-34.1,51.2-34.1,93.9s25.6,68.3,8.5,102.4c-12.3,24.6-15.7,44.8-10.2,60.5l0,0c-16.1,22-19.8,50.8-9.9,76.2
	S97.2,479.5,124,484.9z"/>
<g>
	<path class="st4" d="M255.8,298.7c-33.2,0-59.9-19.4-77.2-56.1c-12-28.5-17.7-59.4-16.6-90.3c0-2.3,0.8-4.4,2.4-6.1
		c1.6-1.6,3.7-2.5,6-2.6h0.1c4.7,0,8.5,3.8,8.5,8.4c0.5,37.7,4.8,61.8,15,83.2c14.4,30.7,35.2,46.3,61.7,46.3
		c26.3,0,47-15.6,61.6-46.3c11.9-25,14.7-51.3,15.1-83.3c0.1-4.7,3.9-8.4,8.5-8.4h0.1c4.7,0.1,8.5,3.9,8.4,8.7
		c1,31-4.7,61.8-16.8,90.3C315.4,279.3,288.8,298.7,255.8,298.7z"/>
	<path class="st4" d="M175.8,221.6c-0.4,0-0.9,0-1.3-0.1c-9-1.3-38.2-9-38.2-51.4c0-1.5,0-3,0.1-4.3c0.2-3.1,2-5.8,4.8-7.2
		s6.1-1.1,8.6,0.6c2.5,1.8,3.9,4.7,3.7,7.8c-0.1,0.9-0.1,2-0.1,3c0,27,14.8,33.2,23.6,34.6c4.4,0.7,7.6,4.6,7.2,9.1
		C183.9,218.2,180.2,221.6,175.8,221.6L175.8,221.6z"/>
	<path class="st4" d="M335.8,221.6c-4.5,0-8.2-3.4-8.5-7.9c-0.3-4.4,2.8-8.4,7.2-9.1c8.8-1.3,23.6-7.6,23.6-34.6c0-1.1,0-2.1-0.1-3
		c-0.3-3.1,1.1-6.1,3.6-7.8c2.5-1.8,5.8-2,8.6-0.6s4.6,4.1,4.8,7.2c0.1,1.3,0.1,2.8,0.1,4.3c0,42.4-29.2,50.1-38.2,51.4
		C336.7,221.6,336.3,221.6,335.8,221.6z"/>
	<path class="st4" d="M140.9,494.9h-1.3c-47.5,0-86.5-37.4-88.6-84.9c-2-47.4,33.6-88.1,80.9-92.2l68.6-6c4.7-0.3,8.7,3.1,9.1,7.8
		s-3,8.8-7.6,9.2l-68.6,6c-38.2,3.3-67,36.1-65.4,74.4s33.2,68.5,71.5,68.5h1.3c4.7,0,8.5,3.8,8.5,8.5
		C149.5,491.1,145.7,494.9,140.9,494.9z"/>
	<path class="st4" d="M371.9,494.9h-1.3c-4.7,0-8.5-3.8-8.5-8.5s3.8-8.5,8.5-8.5h1.3c38.3,0,69.9-30.2,71.5-68.5
		c1.7-38.3-27.2-71.1-65.4-74.4l-68.6-6c-4.6-0.5-8-4.6-7.6-9.2s4.5-8.1,9.1-7.8l68.6,6c47.3,4.1,83,44.7,80.9,92.2
		C458.5,457.5,419.4,494.9,371.9,494.9z"/>
	<path class="st4" d="M332.6,512H179c-33,0-59.7-26.8-59.7-59.7v-42.7c0-4.7,3.8-8.5,8.5-8.5s8.5,3.8,8.5,8.5v42.7
		c0,23.6,19.1,42.6,42.7,42.7h153.6c23.6,0,42.6-19.1,42.7-42.7v-42.7c0-4.7,3.8-8.5,8.5-8.5s8.5,3.8,8.5,8.5v42.7
		C392.3,485.2,365.6,512,332.6,512z"/>
	<path class="st4" d="M196.1,341.3c-3,0-5.7-1.5-7.3-4.1c-1.6-2.5-1.7-5.7-0.3-8.3c1.9-3.7,3.5-7.5,4.9-11.4
		c5.2-14.3,8.6-29.2,10.1-44.3c0.5-4.7,4.7-8.1,9.4-7.6s8.1,4.7,7.6,9.4c-1.6,16.5-5.4,32.8-11.1,48.4c-1.6,4.5-3.5,8.9-5.7,13.2
		C202.2,339.5,199.3,341.3,196.1,341.3z"/>
	<path class="st4" d="M315.5,341.3c-3.2,0-6.1-1.8-7.6-4.6c-2.2-4.3-4.1-8.8-5.7-13.3c-5.7-15.6-9.4-31.9-11.1-48.5
		c-0.5-4.6,2.9-8.8,7.5-9.3s8.8,2.7,9.4,7.4c1.6,15.2,5,30.1,10.2,44.5c1.4,3.9,3,7.8,4.9,11.5c1.4,2.6,1.2,5.8-0.3,8.3
		S318.5,341.3,315.5,341.3z"/>
	<path class="st4" d="M255.8,401.1c-95.8,0-109.6-67.4-110.8-75.1c-0.8-4.7,2.4-9,7.1-9.8s9,2.4,9.8,7.1c1,6.2,12.3,60.8,94,60.8
		s93-54.5,94-60.8c0.8-4.7,5.1-7.8,9.8-7.1s7.8,5.1,7.1,9.8C365.4,333.7,351.6,401.1,255.8,401.1z"/>
</g>
<path class="st3" d="M196.1,17.1c-8.2,0.2-16.3,1.7-24,4.5c-7.7,3.2-14.8,7.5-21.1,12.9c-12.8,11.3-22.2,25.8-27.4,42
	c-0.8,2.3-1.5,4.8-2,7.2c-0.6,2.4-1.1,4.8-1.4,7.3c-0.4,2.4-0.7,4.9-0.7,7.3l-0.4,8.1c-0.5,12.2-4.1,24.2-10.3,34.7
	c-5.8,10.3-12.6,18.7-17,27.5c-4.4,8.5-6.7,18-6.7,27.5h-17c0-12.3,2.9-24.4,8.5-35.3c5.5-10.7,12.5-19.4,17.3-28.1
	c4.9-8.3,7.7-17.6,8.1-27.2l0.4-8.2c0.1-3,0.4-6,0.9-8.9c0.4-2.9,0.9-5.9,1.7-8.7c0.6-2.9,1.4-5.7,2.4-8.5
	c6.1-19.2,17.3-36.4,32.5-49.7c7.8-6.7,16.5-12,26-15.9c9.7-3.6,19.9-5.5,30.2-5.7L196.1,17.1L196.1,17.1z"/>
<path class="st4" d="M155.7,20.5c2.4,3.8,7.1,5.3,11.2,3.5c9.1-4.5,19.1-6.8,29.2-6.9V0c-12.7,0.1-25.3,3-36.7,8.6
	c-2.2,1-3.8,2.8-4.5,5.1S154.5,18.4,155.7,20.5z"/>
<path class="st4" d="M68.1,196.3h17.1c0-9.6,2.3-19,6.7-27.5c4.4-8.8,11.2-17.1,17-27.5c6.2-10.6,9.7-22.5,10.3-34.7l0.4-8.1
	c0.1-2.5,0.3-4.9,0.7-7.3c0.3-2.5,0.8-4.9,1.4-7.3c0.5-2.4,1.2-4.8,2-7.2c0.7-2.5,1.6-5,2.7-7.3c1.5-4.2-0.3-8.9-4.3-11
	c-2.1-1.1-4.5-1.2-6.7-0.3s-3.9,2.6-4.7,4.8c-1.3,2.8-2.3,5.7-3.2,8.7c-1,2.8-1.8,5.6-2.4,8.5c-0.8,2.9-1.3,5.8-1.7,8.7
	c-0.5,2.9-0.8,5.9-0.9,8.9l-0.4,8.2c-0.4,9.6-3.2,19-8.1,27.2c-4.8,8.7-11.8,17.4-17.3,28.1C71,171.9,68.1,184,68.1,196.3z"/>
<path class="st4" d="M142.8,42.7c1.4-1.6,2.1-3.7,2-5.8l-0.2-1.6c-0.1-0.6-0.3-1.1-0.5-1.6s-0.4-1-0.7-1.4c-0.3-0.5-0.7-0.9-1.1-1.4
	c-1.6-1.7-3.8-2.6-6.1-2.6c-1.2,0.1-2.3,0.4-3.3,0.9c-3.3,1.6-5.3,5.1-5.1,8.7c0.1,1.1,0.5,2.2,1.1,3.2c0.5,1,1.3,1.8,2.2,2.5
	c1.8,1.3,4,1.9,6.3,1.7C139.4,45.2,141.3,44.2,142.8,42.7z"/>
<path class="st4" d="M74.9,367.7c-3.6,0-6.9-2.3-8.1-5.7c-6.2-17.9-2.6-40.5,10.7-67.1c8.7-17.4,4.4-32.3-1.1-51.2
	c-5.1-15.3-7.9-31.2-8.4-47.4c0-4.7,3.8-8.5,8.5-8.5s8.5,3.8,8.5,8.5c0.5,14.5,3,28.9,7.7,42.6c6,20.7,11.6,40.3-0.1,63.6
	c-11.2,22.3-14.5,40.5-9.8,53.9c0.9,2.6,0.5,5.5-1.1,7.7C80.2,366.4,77.7,367.7,74.9,367.7z"/>
<path class="st4" d="M436.7,367.6c-1,0-1.9-0.2-2.8-0.5c-4.5-1.5-6.8-6.4-5.3-10.9c4.6-13.4,1.3-31.5-9.8-53.8
	c-11.7-23.3-6-42.9,0-63.6c4.6-13.8,7.2-28.1,7.7-42.6c-0.4-15.4-5.9-30.3-15.6-42.2c-11.6-14.7-18.1-32.9-18.5-51.7
	c0-40.3-32.8-85.3-76.8-85.3c-43.3,0-52.3,12.7-52.3,12.8c-1.4,2.8-4.4,4.6-7.5,4.5c-3.2-0.1-6.1-2-7.5-4.9l0,0
	c-0.1,0-9.3-12.4-52.1-12.4c-4.7,0-8.5-3.8-8.5-8.5s3.8-8.5,8.5-8.5c34,0,51.2,7.3,59.7,13.5C264.3,7.3,281.5,0,315.5,0
	c55.3,0,93.9,54,93.9,102.4c0.4,15.4,5.9,30.3,15.6,42.2c11.6,14.7,18.1,32.9,18.5,51.7c-0.4,16.1-3.3,32.1-8.3,47.4
	c-5.5,18.9-9.8,33.8-1.1,51.2c13.3,26.6,16.9,49.1,10.7,67C443.6,365.3,440.3,367.6,436.7,367.6z"/>
<path class="st4" d="M383.8,179.2c-0.8,0-1.5-0.1-2.2-0.3c-3.7-1-86-24.2-125.8-98.9c-39.7,74.7-122,97.9-125.8,98.9
	c-4.5,1.2-9.1-1.5-10.3-6c-1.2-4.5,1.4-9.1,5.8-10.4c0.9-0.3,90.2-25.6,122.3-105.9c1.3-3.2,4.4-5.4,7.9-5.4c3.5,0,6.6,2.1,7.9,5.4
	c32.1,80.2,121.4,105.6,122.3,105.9c4.1,1.1,6.8,5.1,6.2,9.4C391.7,176,388.1,179.2,383.8,179.2z"/>
</svg>
